<?xml version="1.0" standalone="no"?>
<!DOCTYPE svg PUBLIC "-//W3C//DTD SVG 20010904//EN"
 "http://www.w3.org/TR/2001/REC-SVG-20010904/DTD/svg10.dtd">
<svg version="1.0" xmlns="http://www.w3.org/2000/svg"
 width="1080.000000pt" height="1080.000000pt" viewBox="0 0 1080.000000 1080.000000"
 preserveAspectRatio="xMidYMid meet">
<metadata>
Created by potrace 1.14, written by Peter Selinger 2001-2017
</metadata>
<g transform="translate(0.000000,1080.000000) scale(0.100000,-0.100000)"
fill="#000000" stroke="none">
<path d="M0 5400 l0 -5400 5400 0 5400 0 0 5400 0 5400 -5400 0 -5400 0 0
-5400z m5444 4384 c24 -24 24 -68 0 -95 -11 -12 -14 -64 -14 -259 l0 -243 155
-158 155 -158 0 -1118 0 -1118 -166 -154 -166 -153 -23 18 c-13 11 -89 79
-169 153 l-146 134 0 1120 0 1120 155 159 155 159 0 240 c0 226 -1 242 -20
266 -11 14 -20 35 -20 46 0 49 69 76 104 41z m-812 -489 c10 -22 9 -29 -9 -46
-38 -38 -89 3 -63 51 16 29 58 26 72 -5z m1604 17 c36 -25 8 -91 -34 -78 -26
9 -39 50 -22 71 13 16 38 19 56 7z m-1921 -121 c0 -45 -26 -62 -54 -37 -37 34
-19 80 29 74 21 -3 25 -8 25 -37z m2244 17 c10 -26 -7 -61 -32 -66 -25 -5 -51
42 -37 67 15 29 58 28 69 -1z m-502 -144 c3 -8 -2 -23 -11 -32 -15 -15 -17
-15 -32 0 -21 21 -11 48 16 48 11 0 23 -7 27 -16z m-1252 -4 c11 -17 -6 -50
-25 -50 -19 0 -36 33 -25 50 3 5 15 10 25 10 10 0 22 -5 25 -10z m-737 -12 c7
-7 12 -24 12 -38 0 -52 -56 -70 -80 -25 -27 50 29 102 68 63z m2742 -2 c18
-22 8 -59 -19 -73 -45 -22 -80 16 -59 62 13 29 58 35 78 11z m-2953 -222 c16
-26 16 -27 -5 -44 -28 -23 -60 -15 -68 16 -13 52 43 73 73 28z m3158 -8 c0
-36 -27 -56 -52 -40 -40 25 -20 77 26 72 21 -2 26 -8 26 -32z m563 -152 c13
-9 22 -25 22 -42 0 -33 -8 -45 -37 -61 -61 -32 -105 73 -46 108 25 14 35 14
61 -5z m-4270 -6 c7 -7 12 -26 12 -43 0 -38 -16 -55 -51 -55 -49 0 -73 45 -49
91 12 22 68 27 88 7z m1593 -502 c-1 -279 -6 -518 -11 -530 -7 -17 -9 -17 -9
-3 -1 18 -31 25 -31 7 0 -5 -7 -10 -16 -10 -8 0 -13 4 -9 9 3 5 1 12 -4 15 -5
3 -12 -1 -15 -10 -5 -13 -9 -14 -21 -4 -8 7 -12 17 -8 23 4 7 -6 8 -30 4 -28
-4 -37 -2 -37 9 0 8 -7 14 -15 14 -9 0 -12 -6 -9 -15 4 -8 2 -15 -4 -15 -5 0
-12 6 -15 14 -9 23 -46 8 -40 -15 6 -22 3 -23 -29 -6 -14 7 -23 18 -20 26 4
11 -8 12 -59 8 -197 -18 -217 -19 -235 -9 -16 10 -14 11 16 12 57 1 201 27
260 48 124 43 284 138 293 174 8 30 -19 60 -52 56 -18 -2 -31 -14 -43 -36 -25
-52 -45 -68 -111 -96 -145 -60 -150 -61 -557 -61 -206 -1 -390 -4 -409 -8 -84
-16 -143 -40 -224 -89 -101 -61 -260 -196 -253 -215 3 -8 -2 -13 -14 -13 -11
0 -20 3 -20 6 0 21 125 154 194 206 90 68 164 105 276 138 99 29 120 43 120
80 0 58 -77 67 -90 11 -4 -18 -22 -28 -91 -50 -331 -107 -589 -416 -664 -796
-21 -104 -24 -112 -41 -129 -8 -8 -15 -26 -16 -39 -1 -16 -7 -23 -15 -20 -7 3
-13 9 -13 14 0 5 -4 9 -10 9 -5 0 -10 -7 -10 -15 0 -17 -85 -105 -101 -105 -5
0 -8 -6 -7 -12 2 -7 -3 -12 -9 -10 -7 1 -13 -4 -13 -10 0 -7 -12 -24 -25 -37
-14 -13 -25 -29 -25 -37 0 -8 -11 -19 -24 -25 -14 -7 -27 -22 -30 -35 -4 -13
-13 -24 -21 -24 -8 0 -15 -6 -15 -13 0 -8 -9 -22 -20 -32 -23 -21 -61 -100
-57 -118 1 -7 -7 -12 -17 -12 -10 0 -28 -14 -40 -30 -12 -16 -30 -38 -41 -48
-13 -12 -19 -28 -16 -49 2 -21 -1 -28 -9 -23 -6 4 -9 13 -6 21 3 8 1 14 -4 14
-6 0 -10 -4 -10 -10 0 -5 -9 -10 -20 -10 -11 0 -20 -4 -20 -9 0 -5 6 -8 12 -7
23 2 23 -19 0 -22 -12 -2 -22 -10 -22 -18 0 -8 -4 -14 -10 -14 -5 0 -10 -4
-10 -10 0 -5 -19 -27 -41 -49 -23 -22 -39 -44 -35 -49 6 -10 -81 -112 -95
-112 -5 0 -6 8 -3 18 5 16 5 16 -6 0 -6 -10 -20 -18 -31 -18 -12 0 -17 -4 -14
-11 4 -6 13 -8 21 -5 8 3 14 1 14 -4 0 -5 -12 -13 -27 -16 -25 -7 -25 -8 -8
-20 18 -13 18 -14 -3 -14 -16 0 -22 -6 -22 -21 0 -18 -2 -19 -15 -9 -13 10
-15 9 -15 -9 0 -13 -6 -21 -16 -21 -12 0 -15 -7 -12 -25 5 -22 2 -25 -15 -19
-15 5 -19 3 -14 -9 5 -12 -2 -18 -28 -23 -33 -6 -41 -21 -20 -36 18 -13 -6
-22 -26 -10 -19 12 -20 11 -16 -17 4 -25 2 -31 -14 -31 -13 0 -17 -5 -12 -17
4 -11 3 -14 -5 -9 -12 7 -16 -5 -13 -31 1 -7 -3 -13 -10 -13 -28 0 23 280 96
535 85 291 195 546 343 797 95 159 140 223 269 385 499 626 1148 1047 1948
1266 157 43 431 98 464 94 13 -2 15 -73 12 -511z m1179 489 c691 -120 1380
-465 1895 -950 463 -437 785 -951 956 -1530 80 -268 134 -554 109 -570 -6 -3
-10 1 -10 9 0 9 -4 16 -9 16 -5 0 -12 16 -15 35 -4 19 -12 35 -18 35 -6 0 -8
14 -4 38 5 29 4 33 -4 20 -13 -21 -40 -24 -40 -5 0 7 6 19 13 26 10 10 8 11
-6 5 -12 -4 -24 1 -37 16 -11 13 -20 20 -20 16 0 -3 -11 1 -25 10 -22 15 -23
17 -8 32 20 21 -1 30 -24 10 -12 -9 -15 -9 -9 -1 4 7 -2 22 -13 34 -11 12 -18
26 -15 31 3 4 -1 8 -9 8 -8 0 -17 10 -21 22 -4 18 -8 20 -18 10 -19 -19 -33
-14 -15 6 15 17 15 19 -13 36 -17 9 -30 24 -30 32 0 8 -6 14 -14 14 -7 0 -19
7 -26 15 -10 13 -10 19 5 35 14 16 15 20 4 21 -10 0 -11 2 -1 6 6 2 12 9 12
15 0 6 -6 6 -15 -2 -8 -7 -15 -18 -15 -26 0 -7 -5 -16 -12 -20 -7 -4 -8 -3 -4
4 4 7 1 12 -9 12 -12 0 -14 4 -5 19 11 22 0 34 -23 25 -11 -4 -16 2 -19 18 -2
19 -8 22 -30 20 -35 -3 -36 5 -3 18 14 5 25 15 24 22 0 10 -2 10 -6 1 -7 -18
-33 -16 -33 2 0 8 -4 15 -10 15 -5 0 -10 7 -10 15 0 9 -9 15 -22 15 -15 0 -19
3 -11 8 7 4 10 17 7 29 -4 15 -11 19 -26 15 -17 -4 -19 -1 -14 16 8 24 -22 57
-52 57 -9 0 -18 7 -18 15 -1 8 -2 22 -3 31 0 8 -8 24 -16 35 -14 18 -14 18 -8
-3 4 -17 1 -23 -12 -23 -13 0 -16 6 -12 27 5 25 -11 53 -30 53 -5 0 -19 18
-32 40 -12 22 -26 40 -32 40 -5 0 -9 7 -9 15 0 8 -10 20 -22 26 -29 16 -48 35
-48 48 0 6 -9 11 -21 11 -11 0 -17 5 -14 10 3 6 2 10 -4 10 -6 0 -13 11 -17
25 -3 14 -12 25 -19 25 -8 0 -21 7 -29 16 -9 8 -20 12 -26 9 -5 -3 -10 -1 -10
4 0 6 5 11 10 11 6 0 10 5 10 11 0 5 -4 8 -9 5 -5 -3 -11 1 -15 9 -3 9 -12 12
-22 8 -12 -4 -15 -3 -10 5 5 8 -1 12 -18 12 -30 0 -35 24 -8 39 15 9 15 10 -5
11 -18 0 -23 6 -23 24 0 37 -28 151 -57 236 -56 161 -128 275 -262 414 -115
119 -231 191 -375 232 -54 15 -66 23 -78 49 -16 37 -49 44 -77 16 -44 -44 -16
-77 95 -111 93 -28 196 -77 271 -128 69 -47 163 -136 163 -153 0 -7 -15 1 -32
18 -78 73 -104 94 -138 104 -19 7 -49 23 -66 36 -17 12 -74 41 -127 63 -87 36
-106 41 -224 48 -70 5 -250 7 -398 5 -270 -5 -270 -5 -365 22 -116 33 -175 68
-192 113 -14 37 -45 50 -77 32 -36 -19 -27 -55 22 -88 126 -86 241 -136 376
-163 52 -11 97 -22 100 -25 3 -2 -57 -2 -133 1 -98 4 -144 10 -159 20 -40 28
-77 9 -77 -40 0 -9 -8 -26 -17 -39 -15 -20 -21 -22 -50 -13 -25 8 -37 7 -57
-7 -19 -12 -26 -13 -26 -4 0 9 -3 9 -10 -2 -5 -8 -13 -11 -17 -6 -7 7 -22
1061 -15 1079 5 10 13 10 172 -18z m-3205 -180 c0 -22 -31 -33 -47 -17 -17 17
-1 44 24 40 15 -2 23 -10 23 -23z m5319 -151 c21 -21 20 -47 -3 -68 -15 -14
-24 -15 -39 -7 -18 10 -32 32 -32 51 0 13 30 40 45 40 7 0 21 -7 29 -16z
m-5519 -14 c16 -50 -29 -87 -66 -54 -19 17 -26 54 -12 67 3 4 21 7 39 7 24 0
34 -5 39 -20z m-181 -151 c45 -36 23 -99 -35 -99 -57 0 -78 89 -26 110 31 12
31 12 61 -11z m5891 -9 c22 -25 13 -64 -20 -86 -23 -15 -27 -15 -49 0 -33 21
-41 52 -22 81 20 31 65 33 91 5z m-6075 -180 c39 -39 14 -100 -41 -100 -30 0
-59 31 -59 62 0 24 35 58 60 58 11 0 29 -9 40 -20z m6256 -5 c25 -26 26 -52 2
-82 -17 -21 -65 -15 -82 9 -21 30 -20 54 4 78 27 27 46 25 76 -5z m-6426 -205
c39 -39 14 -100 -41 -100 -30 0 -59 31 -59 62 0 24 35 58 60 58 11 0 29 -9 40
-20z m6600 0 c37 -37 14 -100 -36 -100 -52 0 -75 74 -32 104 30 21 44 20 68
-4z m-4710 -90 c-8 -5 -37 -10 -65 -11 -40 -1 -45 -3 -25 -9 18 -5 8 -7 -35
-7 -33 0 -76 -3 -95 -6 -32 -7 -33 -6 -10 4 63 30 271 55 230 29z m2926 -31
c258 -36 496 -232 579 -477 35 -104 45 -200 45 -437 0 -117 3 -220 6 -229 10
-26 52 9 56 47 3 29 7 32 39 35 24 2 43 -4 62 -19 26 -20 28 -25 25 -93 l-3
-71 -91 -3 -92 -3 -6 -31 c-3 -17 -6 -42 -6 -57 0 -34 -35 -40 -44 -8 -3 12
-6 166 -6 342 -1 421 -15 498 -119 657 -107 164 -263 259 -475 290 -170 24
-339 -26 -483 -142 -53 -43 -193 -205 -216 -250 -4 -8 -5 1 -2 20 22 143 192
319 377 390 122 47 220 58 354 39z m484 -34 c7 -9 10 -18 7 -22 -8 -7 -37 15
-37 28 0 14 16 11 30 -6z m-3805 -44 c3 -6 -4 -15 -15 -21 -20 -11 -21 -10
-10 9 12 23 16 25 25 12z m1215 -21 c0 -5 -4 -10 -10 -10 -5 0 -10 5 -10 10 0
6 5 10 10 10 6 0 10 -4 10 -10z m2680 -33 c0 -6 -9 -2 -20 8 -11 10 -20 23
-20 28 0 6 9 2 20 -8 11 -10 20 -23 20 -28z m-5600 -17 c27 -27 25 -56 -5 -76
-29 -19 -61 -11 -71 19 -10 29 -6 49 14 65 22 17 39 15 62 -8z m7018 -2 c34
-34 -14 -102 -56 -79 -28 15 -35 40 -17 67 17 26 53 32 73 12z m-7192 -264 c9
-34 -18 -64 -43 -48 -29 18 -38 41 -24 58 22 26 60 20 67 -10z m7351 10 c3 -9
-3 -25 -16 -37 -19 -20 -22 -20 -37 -5 -23 23 -10 58 22 58 14 0 27 -7 31 -16z
m-5024 -48 c45 -19 97 -73 120 -126 20 -45 20 -58 13 -1305 -4 -693 -8 -1300
-10 -1348 -2 -95 -11 -111 -53 -101 -14 4 -29 0 -39 -11 -17 -17 -59 -18 -81
-2 -7 5 -13 6 -13 2 0 -4 -7 -2 -15 5 -18 15 -52 4 -66 -22 -9 -16 -8 -23 2
-29 10 -6 3 -9 -18 -9 -18 0 -33 5 -33 10 0 6 -9 10 -21 10 -13 0 -18 -4 -13
-12 5 -9 2 -8 -10 1 -9 8 -15 20 -12 28 3 7 1 13 -4 13 -10 0 -11 -3 -14 -47
-4 -55 -18 -123 -25 -123 -8 0 -21 1526 -21 2396 0 554 1 567 67 624 20 18 50
38 67 46 41 17 138 18 179 0z m2843 -5 c51 -23 111 -93 125 -145 9 -30 10
-411 5 -1416 -4 -756 -7 -1390 -6 -1408 0 -21 -3 -31 -10 -27 -5 3 -10 15 -10
25 0 10 -8 24 -17 29 -17 10 -17 10 0 11 9 0 17 5 17 10 0 6 -7 10 -15 10 -8
0 -15 5 -15 11 0 5 5 7 10 4 6 -3 10 1 10 10 0 11 -5 15 -15 11 -8 -3 -15 -2
-15 3 0 5 -9 11 -21 14 -12 3 -18 10 -14 16 3 6 1 11 -4 11 -6 0 -11 -8 -11
-17 -1 -17 -1 -17 -11 0 -6 9 -14 15 -18 12 -5 -2 -14 2 -21 10 -7 8 -17 12
-22 9 -6 -4 -14 0 -19 7 -7 12 -9 11 -9 -2 0 -8 5 -20 10 -25 7 -7 6 -11 -5
-11 -8 0 -15 4 -15 8 0 8 -36 21 -68 24 -16 1 -21 -2 -18 -11 3 -8 1 -14 -4
-14 -6 0 -10 8 -11 18 0 14 -2 14 -8 -3 -5 -12 -4 -23 3 -27 6 -4 4 -10 -8
-14 -13 -5 -24 0 -38 17 -11 13 -17 18 -13 12 3 -7 2 -13 -3 -13 -5 0 -12 -10
-16 -22 -4 -18 -8 -20 -18 -10 -16 16 -29 1077 -26 2062 l3 685 22 42 c23 43
69 84 113 102 42 16 141 12 186 -8z m-2298 -333 c7 -7 12 -27 12 -44 0 -61
-78 -96 -120 -54 -24 24 -26 54 -5 72 9 7 21 18 28 25 16 16 70 16 85 1z
m-1490 -100 c22 -22 14 -75 -14 -97 -42 -33 -91 -24 -115 20 -13 25 9 54 56
75 38 17 58 17 73 2z m-1444 -110 c8 -13 8 -23 0 -35 -15 -23 -27 -26 -49 -9
-17 12 -18 17 -7 41 14 29 38 31 56 3z m7459 4 c15 -16 15 -20 1 -40 -19 -27
-40 -28 -54 -2 -8 14 -8 26 0 40 13 25 32 26 53 2z m-6313 -912 l0 -620 50 0
c40 0 52 4 56 18 30 103 105 174 205 192 31 6 143 9 250 8 l194 -3 3 -129 c2
-97 -1 -132 -10 -138 -7 -5 -179 -8 -383 -7 -564 2 -1189 -1 -1183 -6 2 -3 44
-7 92 -10 49 -3 96 -9 105 -14 9 -4 64 -6 124 -4 61 2 107 -1 107 -6 0 -5 38
-7 90 -4 51 3 96 1 103 -4 6 -6 31 -9 55 -7 28 1 48 -3 58 -14 9 -8 19 -11 22
-6 10 13 32 16 32 3 0 -5 5 -7 10 -4 7 4 9 -62 8 -192 0 -109 -3 -183 -5 -164
-3 26 -7 31 -14 20 -7 -12 -9 -11 -9 2 0 32 -32 31 -60 -1 -17 -19 -31 -27
-35 -21 -3 6 -3 16 0 21 3 6 1 10 -5 10 -7 0 -9 8 -5 19 5 16 2 18 -14 14 -30
-8 -48 -32 -32 -42 9 -6 7 -10 -9 -14 -16 -4 -20 -2 -16 9 7 17 -30 39 -40 23
-3 -6 -14 -9 -24 -6 -13 3 -17 0 -13 -9 3 -8 0 -21 -7 -29 -10 -13 -9 -15 9
-15 12 0 20 -4 16 -10 -12 -19 -84 27 -98 63 -3 9 -11 17 -17 17 -5 0 -10 6
-10 14 0 9 12 16 33 18 l32 3 0 75 0 75 -32 3 c-26 3 -33 0 -33 -15 0 -14 -2
-15 -9 -4 -7 11 -10 9 -16 -8 -4 -12 -15 -21 -27 -21 -14 0 -18 5 -14 16 10
25 -13 44 -53 44 l-36 0 30 16 c27 14 31 14 43 -3 10 -12 16 -14 19 -6 2 7 12
10 21 7 9 -2 2 3 -15 11 -18 8 -33 21 -33 29 0 16 -63 31 -68 16 -2 -5 -13
-10 -23 -10 -14 0 -18 4 -13 13 6 9 3 8 -8 -1 -20 -16 -12 -46 9 -37 12 4 14
0 10 -15 -4 -15 1 -22 19 -26 13 -3 24 -10 24 -15 0 -13 -14 -11 -29 4 -11 10
-13 9 -8 -4 3 -9 0 -22 -6 -28 -8 -8 -8 -11 2 -11 8 0 10 -7 6 -22 -6 -17 -4
-20 9 -15 10 4 15 3 12 -2 -3 -5 -20 -11 -37 -13 -25 -4 -30 -2 -26 13 3 10
-1 20 -9 23 -10 4 -14 -3 -14 -26 0 -17 -3 -28 -6 -25 -10 10 -44 -12 -44 -28
0 -8 5 -15 11 -15 6 0 9 7 5 15 -3 8 -1 15 4 15 14 0 23 -41 11 -53 -8 -8 -16
-8 -29 -1 -16 10 -17 -25 -17 -618 l0 -629 -27 58 -28 58 0 564 0 564 -25 43
c-14 24 -98 109 -191 194 l-166 150 -477 0 -477 0 -29 -30 c-55 -58 -135 -28
-135 50 0 69 81 101 133 52 l23 -22 465 0 464 0 155 167 c85 92 234 251 330
353 96 102 254 271 350 375 235 255 322 345 332 345 4 0 8 -279 8 -620z m5368
388 c120 -128 274 -294 342 -368 68 -74 158 -171 199 -215 42 -44 148 -158
236 -252 l159 -173 461 0 c441 0 463 1 479 19 38 42 105 32 131 -19 19 -37 13
-62 -22 -90 -36 -28 -70 -25 -103 10 l-28 30 -470 0 -470 0 -34 -27 c-89 -73
-300 -279 -327 -320 l-31 -46 0 -558 c0 -489 -2 -564 -16 -606 -38 -113 -39
-104 -39 559 0 352 -2 643 -5 646 -3 4 -16 7 -30 7 -18 0 -26 6 -28 23 -2 12
-10 22 -18 22 -8 0 -14 5 -14 11 0 5 -4 8 -9 5 -5 -4 -12 0 -15 6 -3 7 -5 4
-3 -7 1 -11 -2 -26 -7 -34 -7 -10 -4 -12 13 -6 15 4 21 2 21 -8 0 -9 6 -17 13
-20 16 -6 8 -14 -18 -19 -14 -2 -19 2 -17 15 2 9 -3 17 -11 17 -14 0 -16 -27
-4 -47 4 -6 0 -14 -8 -17 -9 -3 -18 0 -21 7 -2 6 -22 12 -43 13 -36 0 -38 -1
-29 -21 5 -11 19 -22 30 -22 30 -3 48 -23 20 -23 -12 0 -22 4 -22 8 0 5 -15 6
-32 4 -18 -3 -27 -7 -20 -9 18 -7 14 -33 -5 -33 -23 1 -53 24 -53 41 0 8 -5
21 -10 29 -8 13 -11 12 -24 -5 -15 -20 -15 -20 -16 1 0 13 -11 26 -27 34 -19
8 -23 14 -14 18 7 2 16 0 20 -5 3 -5 29 -7 58 -5 l51 4 4 55 c7 119 -51 156
-110 72 -11 -16 -12 -24 -4 -27 7 -2 12 -8 12 -14 0 -6 -6 -6 -15 2 -8 7 -15
18 -15 25 0 18 -25 26 -39 12 -8 -8 -11 -5 -11 11 0 12 -4 22 -10 22 -5 0 -10
-9 -10 -20 0 -26 -20 -26 -27 0 -3 11 -9 17 -14 14 -5 -3 -9 0 -9 5 0 6 -5 11
-11 11 -6 0 -8 -7 -5 -16 4 -9 1 -23 -6 -32 -10 -12 -10 -16 0 -19 18 -7 15
-23 -4 -23 -12 0 -15 -6 -10 -22 13 -41 11 -52 -6 -56 -11 -2 -18 3 -18 12 0
9 6 16 13 16 8 0 7 3 -3 9 -8 6 -17 8 -21 5 -4 -2 -10 0 -14 6 -3 5 -11 10
-18 10 -6 0 -2 -6 9 -14 26 -20 10 -32 -22 -17 -25 11 -26 10 -20 -13 5 -20 3
-24 -9 -20 -12 5 -15 -15 -18 -128 -1 -73 -4 -7 -5 146 -2 254 0 281 16 299
16 19 16 20 -7 36 -22 14 -65 15 -382 12 -196 -2 -365 0 -376 3 -18 6 -19 15
-16 139 l3 132 233 0 c218 0 234 -1 272 -22 58 -31 105 -81 133 -141 l24 -53
46 3 46 3 -3 618 c-2 410 1 617 7 617 6 0 109 -105 230 -232z m-6604 71 c-8
-14 -34 -11 -34 4 0 8 3 17 7 20 9 9 34 -13 27 -24z m7636 17 c0 -8 -4 -17 -9
-21 -12 -7 -24 12 -16 25 9 15 25 12 25 -4z m-683 -38 c-3 -7 -5 -2 -5 12 0
14 2 19 5 13 2 -7 2 -19 0 -25z m-2397 -30 c80 -41 125 -137 100 -215 -28 -87
-101 -143 -185 -143 -91 0 -153 47 -182 137 -14 44 -14 58 -3 98 34 121 160
178 270 123z m-3913 -14 c-3 -3 -12 -4 -19 -1 -8 3 -5 6 6 6 11 1 17 -2 13 -5z
m2613 -104 l5 -65 68 -3 68 -3 -3 -32 -3 -32 -65 0 -65 -1 -3 -62 c-3 -61 -3
-62 -32 -62 -30 0 -30 0 -30 60 l0 60 -75 0 -75 0 0 35 0 35 75 0 75 0 0 63
c0 70 4 79 35 75 17 -3 21 -12 25 -68z m-1574 -110 c5 0 41 32 79 70 38 39 75
70 81 70 6 0 19 -12 29 -26 l17 -26 -58 -61 c-33 -34 -66 -66 -74 -73 -17 -14
-13 -19 85 -122 40 -42 48 -56 39 -69 -28 -45 -41 -41 -117 35 -40 39 -77 72
-82 72 -5 0 -40 -30 -77 -67 l-68 -68 -26 27 -27 26 59 66 c32 36 62 66 67 66
21 0 0 32 -58 90 -36 35 -65 72 -65 82 0 9 10 24 22 32 22 15 25 14 93 -54 39
-38 75 -70 81 -70z m4292 75 c4 -48 13 -55 75 -55 l48 0 -3 -32 c-3 -33 -4
-33 -60 -36 l-57 -3 -3 -47 c-3 -43 -5 -47 -30 -50 -29 -3 -34 6 -40 72 -3 28
-4 29 -63 30 l-60 1 -3 33 -3 32 65 0 66 0 0 40 c0 27 6 42 18 49 31 19 47 8
50 -34z m-6341 -101 c18 -28 12 -48 -20 -68 -12 -8 -21 -5 -36 8 -25 23 -27
43 -4 68 22 25 40 23 60 -8z m8379 18 c6 -4 16 -16 22 -28 9 -17 7 -25 -9 -43
-24 -25 -27 -26 -51 -4 -22 20 -23 41 -1 65 18 20 23 21 39 10z m-4182 -33 c3
-17 6 -47 6 -65 l0 -34 70 0 c66 0 70 -1 70 -22 0 -44 -13 -51 -79 -45 l-61 5
0 -63 c0 -60 -1 -63 -26 -69 -37 -10 -42 -1 -46 69 l-3 60 -42 -3 c-63 -5 -83
4 -83 39 l0 29 65 0 65 0 0 58 c0 65 3 72 35 72 17 0 24 -8 29 -31z m-4144
-448 c0 -24 -25 -34 -40 -16 -15 18 -5 35 21 35 12 0 19 -7 19 -19z m8255 -1
c3 -5 2 -10 -4 -10 -5 0 -13 5 -16 10 -3 6 -2 10 4 10 5 0 13 -4 16 -10z
m-4434 -112 c84 -37 169 -148 169 -220 l0 -28 -137 0 c-76 0 -268 -2 -426 -4
-159 -3 -302 -3 -318 1 l-29 6 0 134 0 134 353 -3 c301 -3 357 -5 388 -20z
m1334 -113 l0 -130 -320 -6 c-176 -3 -382 -3 -459 0 l-138 4 6 39 c17 105 101
191 213 217 21 5 186 8 368 8 l330 -2 0 -130z m-4135 -295 c0 -5 -6 -10 -14
-10 -8 0 -18 5 -21 10 -3 6 3 10 14 10 12 0 21 -4 21 -10z m5857 -112 c-3 -8
-6 -5 -6 6 -1 11 2 17 5 13 3 -3 4 -12 1 -19z m-5837 -3 c9 -10 9 -15 1 -15
-6 0 -11 4 -11 9 0 5 -8 12 -17 14 -15 4 -15 5 -2 6 9 0 22 -6 29 -14z m86 5
c8 0 14 -9 13 -22 -1 -17 -2 -19 -6 -5 -2 9 -13 17 -23 17 -10 0 -22 5 -26 12
-5 8 -2 9 10 5 10 -4 24 -7 32 -7z m5814 0 c0 -5 -5 -10 -11 -10 -5 0 -7 5 -4
10 3 6 8 10 11 10 2 0 4 -4 4 -10z m54 -35 c3 -8 1 -15 -4 -15 -6 0 -10 7 -10
15 0 8 2 15 4 15 2 0 6 -7 10 -15z m-5899 -5 c3 -5 1 -10 -4 -10 -6 0 -11 5
-11 10 0 6 2 10 4 10 3 0 8 -4 11 -10z m-150 -30 c3 -5 1 -10 -4 -10 -6 0 -11
5 -11 10 0 6 2 10 4 10 3 0 8 -4 11 -10z m185 -10 c0 -5 -4 -10 -10 -10 -5 0
-10 5 -10 10 0 6 5 10 10 10 6 0 10 -4 10 -10z m5640 -44 c-12 -12 -30 2 -24
19 5 11 9 12 19 2 7 -7 10 -16 5 -21z m-5270 -41 c0 -20 -20 -29 -33 -16 -8 8
-8 11 1 11 7 0 12 7 12 16 0 8 5 12 10 9 6 -3 10 -12 10 -20z m-436 6 c3 -5
-6 -8 -19 -8 -14 0 -25 3 -25 8 0 5 9 9 19 9 11 0 22 -4 25 -9z m-179 -11 c3
-5 1 -10 -4 -10 -6 0 -11 5 -11 10 0 6 2 10 4 10 3 0 8 -4 11 -10z m515 -15
c5 3 11 1 15 -5 3 -5 1 -10 -4 -10 -6 0 -11 -7 -11 -16 0 -8 -4 -13 -9 -10
-11 7 -20 53 -12 62 3 3 7 -1 9 -10 2 -9 7 -14 12 -11z m-80 5 c0 -5 -2 -10
-4 -10 -3 0 -8 5 -11 10 -3 6 -1 10 4 10 6 0 11 -4 11 -10z m5940 0 c0 -5 -2
-10 -4 -10 -3 0 -8 5 -11 10 -3 6 -1 10 4 10 6 0 11 -4 11 -10z m-3113 -72 l8
-73 60 0 60 0 3 -32 3 -33 -64 0 c-75 0 -77 -3 -77 -86 0 -54 0 -55 -27 -52
-27 3 -28 5 -31 71 l-3 67 -64 0 -65 0 0 30 c0 29 1 29 63 32 l62 3 3 60 c3
77 6 85 36 85 23 0 25 -5 33 -72z m2890 66 c-3 -3 -12 -4 -19 -1 -8 3 -5 6 6
6 11 1 17 -2 13 -5z m-5804 -93 c2 -10 1 -25 -4 -32 -6 -10 -9 -4 -9 19 0 36
5 42 13 13z m2337 -114 c0 -68 -3 -185 -7 -260 l-6 -135 -35 -7 c-19 -3 -36
-4 -39 -2 -2 3 -7 123 -10 266 l-6 261 51 0 52 0 0 -123z m2768 27 c51 -4 92
-10 92 -14 0 -21 -123 -40 -253 -40 l-137 0 0 30 0 30 103 0 c57 0 145 -3 195
-6z m359 -36 c-3 -7 -5 -2 -5 12 0 14 2 19 5 13 2 -7 2 -19 0 -25z m-4509 13
c8 -5 12 -17 10 -27 -3 -18 -17 -19 -216 -22 l-212 -2 0 23 c0 13 3 27 7 30
10 10 396 8 411 -2z m3417 -70 c3 -5 1 -12 -4 -15 -5 -3 -11 1 -15 9 -6 16 9
21 19 6z m-5665 -26 c22 -23 22 -25 6 -50 -20 -31 -52 -30 -73 1 -12 18 -11
24 8 47 25 33 30 33 59 2z m4713 -18 c33 -56 94 -98 151 -104 59 -7 124 30
172 98 31 42 38 47 55 39 23 -13 23 -12 -1 -59 -62 -122 -197 -169 -315 -111
-76 38 -146 156 -102 173 6 3 13 6 14 6 0 1 12 -18 26 -42z m3697 8 c12 -22
11 -28 -5 -45 -22 -24 -33 -25 -57 -3 -23 21 -23 38 2 63 23 23 42 18 60 -15z
m-2683 -7 c-3 -8 -6 -5 -6 6 -1 11 2 17 5 13 3 -3 4 -12 1 -19z m-3487 -38 c6
-8 8 -19 7 -25 -2 -6 -83 -11 -209 -13 l-205 -2 5 31 5 31 194 -4 c157 -3 196
-7 203 -18z m-1215 1 c3 -5 1 -12 -5 -16 -5 -3 -10 1 -10 9 0 18 6 21 15 7z
m1625 -31 c0 -5 -4 -10 -10 -10 -5 0 -10 5 -10 10 0 6 5 10 10 10 6 0 10 -4
10 -10z m40 -35 c0 -23 -24 -45 -36 -33 -7 7 17 58 28 58 4 0 8 -11 8 -25z
m748 -117 l-3 -73 -42 -3 -43 -3 0 75 0 76 45 0 46 0 -3 -72z m2260 61 c-2 -6
-8 -10 -13 -10 -5 0 -11 4 -13 10 -2 6 4 11 13 11 9 0 15 -5 13 -11z m-3470
-5 c25 -7 30 -39 6 -48 -9 -3 -103 -6 -210 -6 l-194 0 0 23 c0 13 3 27 7 30 8
9 360 9 391 1z m3242 -94 c0 -11 -4 -20 -10 -20 -5 0 -10 9 -10 20 0 11 5 20
10 20 6 0 10 -9 10 -20z m-2540 -15 c0 -8 -7 -15 -15 -15 -8 0 -15 7 -15 15 0
8 7 15 15 15 8 0 15 -7 15 -15z m3554 -111 c33 -87 -46 -184 -151 -184 -45 0
-57 4 -85 31 -21 20 -26 29 -14 25 13 -5 17 -2 12 9 -3 9 0 15 7 15 7 0 28 12
46 28 19 15 36 27 40 27 3 1 22 9 41 20 19 11 38 19 42 20 4 0 13 6 20 13 17
17 35 15 42 -4z m-984 -4 c0 -5 -4 -10 -9 -10 -6 0 -13 5 -16 10 -3 6 1 10 9
10 9 0 16 -4 16 -10z m-1122 -225 l122 -120 -1 -205 c-1 -179 -2 -201 -14
-175 -7 17 -17 29 -22 29 -4 -1 -17 5 -28 12 -17 12 -17 14 -2 14 9 0 17 5 17
10 0 15 -22 12 -48 -6 -29 -20 -28 -45 3 -67 25 -18 25 -18 25 10 0 21 3 24 9
13 6 -8 7 -18 5 -22 -3 -4 -1 -8 5 -8 5 0 11 6 14 13 3 6 4 2 4 -10 -1 -14 -9
-24 -24 -28 -13 -3 -23 -12 -23 -20 0 -8 -5 -15 -10 -15 -13 0 -30 41 -23 54
3 4 -7 19 -23 33 -25 21 -30 22 -40 9 -15 -21 -66 -22 -58 -1 4 8 11 12 17 8
6 -4 8 0 4 9 -3 9 0 21 6 27 8 8 6 11 -7 11 -10 0 -20 -9 -23 -20 -3 -11 -10
-20 -15 -20 -11 0 1 -42 14 -51 6 -4 -1 -6 -15 -6 -20 0 -27 5 -29 26 -6 44
-18 -1146 -20 -1971 -2 -605 0 -780 10 -790 15 -15 16 -60 0 -76 -20 -20 -56
-14 -73 11 -14 22 -13 28 6 73 22 48 22 54 15 409 -3 198 -6 716 -7 1150 0
435 -3 886 -6 1003 -6 200 -7 212 -25 212 -11 0 -28 4 -38 10 -15 8 -20 6 -26
-13 -4 -12 -12 -25 -18 -29 -8 -5 -7 -11 1 -19 10 -10 17 -8 31 9 19 22 69 32
57 11 -4 -6 -14 -8 -23 -4 -9 3 -13 3 -9 -1 10 -11 -23 -44 -38 -38 -20 8 -30
-17 -11 -28 20 -11 21 -28 1 -28 -29 0 -63 -30 -58 -51 4 -14 2 -18 -10 -13
-9 3 -17 15 -19 27 -2 14 -11 23 -27 25 -15 2 -21 0 -17 -7 4 -6 1 -11 -8 -11
-8 0 -17 -13 -21 -30 -4 -16 -10 -30 -14 -30 -16 0 -21 78 -21 332 l0 256 161
152 161 153 41 -39 c23 -21 97 -93 165 -159z m655 23 c3 -10 7 -10 20 1 15 12
17 10 17 -22 0 -99 -146 -162 -229 -98 l-24 18 29 19 c16 10 32 23 36 28 3 5
19 11 35 13 15 2 33 10 39 18 6 8 14 12 17 9 3 -4 13 1 22 10 20 19 32 20 38
4z m-1535 -349 l-3 -331 -28 -24 c-36 -30 -74 -30 -112 0 -25 20 -28 26 -16
40 7 9 10 16 6 16 -5 0 0 9 10 20 10 11 24 20 31 20 7 0 22 12 33 26 20 26 21
39 21 295 l0 269 31 0 30 0 -3 -331z m853 -215 c-12 -9 -21 -26 -21 -40 0 -25
-23 -33 -36 -12 -5 8 -2 9 9 5 22 -8 21 5 -4 50 -11 21 -15 32 -8 26 7 -7 27
-12 44 -12 16 1 22 3 13 6 -19 5 -23 15 -11 26 3 4 13 -2 21 -14 13 -19 12
-22 -7 -35z m-238 -12 c-13 -8 -6 -52 8 -52 5 0 9 -4 9 -10 0 -19 -49 -6 -54
14 -5 20 32 72 43 60 3 -3 0 -8 -6 -12z m124 -24 c-3 -8 -6 -5 -6 6 -1 11 2
17 5 13 3 -3 4 -12 1 -19z m203 -18 c0 -5 -4 -10 -9 -10 -6 0 -13 5 -16 10 -3
6 1 10 9 10 9 0 16 -4 16 -10z m30 -25 c0 -16 -6 -25 -15 -25 -8 0 -15 5 -15
10 0 6 5 10 11 10 6 0 9 7 5 15 -3 8 -1 15 4 15 6 0 10 -11 10 -25z m507 3
c27 -25 29 -54 6 -80 -50 -56 -129 16 -82 75 25 33 45 34 76 5z m-589 -19
c-13 -8 -49 11 -42 22 2 4 15 2 28 -4 15 -7 20 -14 14 -18z m-258 -25 c0 -9
-5 -14 -12 -12 -18 6 -21 28 -4 28 9 0 16 -7 16 -16z m-41 -20 c-6 -8 -18 -14
-27 -14 -13 0 -12 3 3 20 20 22 43 17 24 -6z m-135 -9 c-4 -8 -14 -15 -23 -15
-10 0 -18 7 -18 15 0 9 10 15 23 15 17 0 22 -4 18 -15z m32 -32 c-11 -11 -17
4 -9 23 7 18 8 18 11 1 2 -10 1 -21 -2 -24z m29 27 c3 -5 1 -10 -4 -10 -6 0
-11 5 -11 10 0 6 2 10 4 10 3 0 8 -4 11 -10z m350 -10 c3 -5 1 -10 -4 -10 -6
0 -11 5 -11 10 0 6 2 10 4 10 3 0 8 -4 11 -10z m-498 -32 c-3 -7 -5 -2 -5 12
0 14 2 19 5 13 2 -7 2 -19 0 -25z m-2017 -33 c19 -23 8 -50 -20 -50 -16 0 -26
6 -28 18 -4 18 14 47 28 47 4 0 13 -7 20 -15z m2024 -6 c-3 -5 -10 -7 -15 -3
-5 3 -7 10 -3 15 3 5 10 7 15 3 5 -3 7 -10 3 -15z m56 -99 c0 -5 -2 -10 -4
-10 -3 0 -8 5 -11 10 -3 6 -1 10 4 10 6 0 11 -4 11 -10z m-3224 -119 c25 -49
-29 -99 -68 -64 -10 9 -18 29 -18 44 0 50 64 65 86 20z m2208 -233 c11 -44
-44 -63 -82 -28 -38 35 -28 50 34 50 35 0 43 -4 48 -22z m-2012 -35 c41 -37 3
-105 -50 -87 -21 7 -28 17 -30 44 -5 53 41 78 80 43z m6614 -8 c19 -30 11 -62
-21 -77 -49 -22 -96 42 -60 82 25 27 61 25 81 -5z m-6438 -187 c7 -7 12 -24
12 -38 0 -14 -5 -31 -12 -38 -7 -7 -24 -12 -38 -12 -14 0 -31 5 -38 12 -7 7
-12 24 -12 38 0 14 5 31 12 38 7 7 24 12 38 12 14 0 31 -5 38 -12z m6266 -21
c13 -36 -2 -61 -38 -65 -35 -4 -56 13 -56 47 0 36 19 53 55 49 22 -2 32 -10
39 -31z m-1649 -182 c23 -53 1 -114 -53 -147 -49 -30 -117 -21 -154 21 -30 33
-36 54 -15 46 6 -3 24 6 39 20 15 14 34 25 42 25 8 0 16 5 18 12 2 6 14 13 27
15 13 2 32 14 43 28 23 29 35 25 53 -20z m-4431 19 c32 -32 10 -94 -34 -94
-26 0 -50 27 -50 55 0 28 24 55 50 55 10 0 26 -7 34 -16z m5890 -27 c13 -35
-2 -61 -36 -65 -30 -4 -58 21 -58 52 0 31 20 47 55 44 22 -2 32 -10 39 -31z"/>
<path d="M5174 8546 c-12 -31 0 -51 31 -51 27 0 30 3 30 30 0 25 -4 30 -28 33
-17 2 -29 -2 -33 -12z"/>
<path d="M5390 6925 c-7 -8 -10 -18 -6 -22 3 -3 6 -1 6 5 0 6 9 9 21 7 12 -3
19 0 17 7 -7 19 -24 20 -38 3z"/>
<path d="M4497 8269 c-9 -6 -15 -14 -12 -19 6 -10 45 9 45 22 0 11 -11 10 -33
-3z"/>
<path d="M4301 8143 c-43 -21 -71 -67 -71 -115 0 -46 12 -49 27 -8 6 16 18 33
27 36 29 11 85 -6 131 -41 54 -42 82 -45 91 -10 27 109 -95 192 -205 138z"/>
<path d="M4004 8106 c-12 -31 0 -51 31 -51 27 0 30 3 30 30 0 25 -4 30 -28 33
-17 2 -29 -2 -33 -12z"/>
<path d="M3396 7875 c4 -8 8 -15 10 -15 2 0 4 7 4 15 0 8 -4 15 -10 15 -5 0
-7 -7 -4 -15z"/>
<path d="M3135 7747 c-13 -10 -16 -21 -12 -39 9 -33 29 -41 56 -22 26 19 27
50 2 64 -25 13 -24 13 -46 -3z"/>
<path d="M6363 8140 c-39 -23 -59 -53 -67 -102 -8 -42 4 -54 33 -36 19 11 26
7 74 -40 58 -57 76 -62 124 -32 114 69 52 230 -89 230 -25 0 -56 -8 -75 -20z"/>
<path d="M6732 8108 c-16 -16 -15 -30 1 -52 11 -15 18 -16 34 -8 11 6 24 19
27 28 13 34 -35 59 -62 32z"/>
<path d="M7610 7746 c-19 -23 -8 -61 18 -64 46 -7 72 47 33 68 -26 14 -36 13
-51 -4z"/>
<path d="M8690 6070 c0 -5 5 -10 11 -10 5 0 7 5 4 10 -3 6 -8 10 -11 10 -2 0
-4 -4 -4 -10z"/>
<path d="M8821 5924 c0 -11 3 -14 6 -6 3 7 2 16 -1 19 -3 4 -6 -2 -5 -13z"/>
<path d="M3956 5885 c-39 -39 -18 -106 35 -113 55 -7 91 75 51 111 -23 21 -66
22 -86 2z"/>
<path d="M3965 4948 c-50 -27 -60 -80 -21 -117 34 -32 74 -25 102 17 12 18 20
41 17 51 -11 41 -64 68 -98 49z"/>
<path d="M3946 4609 c-31 -25 -35 -68 -7 -93 20 -18 96 -19 99 -1 1 6 4 24 8
42 5 24 1 36 -15 52 -27 27 -51 27 -85 0z"/>
<path d="M6792 6818 c-7 -7 -12 -21 -12 -33 0 -12 5 -26 12 -33 7 -7 21 -12
33 -12 12 0 26 5 33 12 7 7 12 21 12 33 0 12 -5 26 -12 33 -7 7 -21 12 -33 12
-12 0 -26 -5 -33 -12z"/>
<path d="M6770 5880 c-23 -23 -25 -42 -9 -73 15 -28 28 -37 57 -37 31 0 62 34
62 68 0 57 -69 83 -110 42z"/>
<path d="M6794 5315 c-16 -24 -16 -27 1 -45 10 -11 26 -20 36 -20 21 0 49 26
49 45 0 20 -28 45 -50 45 -11 0 -27 -11 -36 -25z"/>
<path d="M6765 4915 c-18 -41 -6 -77 32 -94 33 -15 37 -14 72 15 56 47 27 114
-50 114 -36 0 -41 -3 -54 -35z"/>
<path d="M2570 5686 l0 -46 50 0 c44 0 50 3 56 24 12 50 3 61 -54 64 l-52 3 0
-45z"/>
<path d="M2454 5506 c-10 -26 4 -48 28 -44 17 2 23 10 23 28 0 18 -6 26 -23
28 -13 2 -25 -3 -28 -12z"/>
<path d="M2467 5328 c-21 -11 -22 -47 -2 -55 9 -3 24 2 35 12 31 28 3 64 -33
43z"/>
<path d="M1975 5030 c4 -6 11 -8 16 -5 14 9 11 15 -7 15 -8 0 -12 -5 -9 -10z"/>
<path d="M2275 4980 c-3 -5 -1 -10 4 -10 6 0 11 5 11 10 0 6 -2 10 -4 10 -3 0
-8 -4 -11 -10z"/>
<path d="M2320 4970 c-12 -8 -10 -10 8 -10 13 0 20 4 17 10 -7 12 -6 12 -25 0z"/>
<path d="M2760 4940 c0 -5 5 -10 10 -10 6 0 10 5 10 10 0 6 -4 10 -10 10 -5 0
-10 -4 -10 -10z"/>
<path d="M2800 4925 c0 -8 5 -15 10 -15 6 0 10 7 10 15 0 8 -4 15 -10 15 -5 0
-10 -7 -10 -15z"/>
<path d="M2385 4920 c-16 -7 -17 -9 -3 -9 9 -1 20 4 23 9 7 11 7 11 -20 0z"/>
<path d="M2811 4884 c0 -11 3 -14 6 -6 3 7 2 16 -1 19 -3 4 -6 -2 -5 -13z"/>
<path d="M2205 4880 c-3 -5 -1 -10 4 -10 6 0 11 5 11 10 0 6 -2 10 -4 10 -3 0
-8 -4 -11 -10z"/>
<path d="M2196 4833 c-10 -25 8 -37 33 -21 27 17 27 32 0 18 -11 -7 -23 -9
-27 -6 -3 3 0 6 6 6 7 0 12 5 12 10 0 16 -17 11 -24 -7z"/>
<path d="M2145 4771 c-3 -5 0 -13 6 -17 7 -4 9 -3 5 4 -3 5 0 13 6 15 9 4 10
6 1 6 -6 1 -14 -3 -18 -8z"/>
<path d="M2717 4691 c-3 -11 2 -17 14 -18 24 -2 32 24 9 30 -11 3 -20 -2 -23
-12z"/>
<path d="M2575 4691 c-3 -5 -1 -12 4 -15 5 -3 11 1 15 9 6 16 -9 21 -19 6z"/>
<path d="M2622 4681 c2 -7 7 -12 11 -12 12 1 9 15 -3 20 -7 2 -11 -2 -8 -8z"/>
<path d="M8010 5875 c0 -8 7 -15 15 -15 8 0 15 7 15 15 0 8 -7 15 -15 15 -8 0
-15 -7 -15 -15z"/>
<path d="M8144 5726 c-3 -8 -4 -27 -2 -43 3 -24 8 -28 40 -31 33 -3 38 0 44
22 11 45 2 61 -39 64 -26 2 -39 -1 -43 -12z"/>
<path d="M8313 5523 c-19 -7 -16 -60 3 -67 22 -8 54 11 54 32 0 32 -26 48 -57
35z"/>
<path d="M8310 5274 c-22 -26 -1 -69 34 -69 35 0 51 23 42 58 -5 21 -12 27
-35 27 -16 0 -34 -7 -41 -16z"/>
<path d="M8085 5031 l-60 -6 43 -19 c23 -11 42 -26 42 -35 1 -14 2 -13 11 2 6
11 21 17 42 16 18 -1 24 -3 15 -6 -10 -2 -18 -11 -18 -19 0 -8 -7 -17 -15 -20
-8 -3 -13 -14 -12 -25 4 -27 17 -35 28 -19 9 13 10 12 6 -2 -3 -9 1 -19 9 -22
25 -10 34 -7 28 9 -4 8 -1 15 5 15 8 0 8 6 -1 19 -7 11 -16 17 -20 15 -13 -8
-9 5 8 35 13 22 22 27 41 23 15 -3 29 1 35 9 7 11 11 11 15 2 2 -7 9 -13 14
-13 5 0 9 6 9 13 0 9 30 12 118 12 126 0 152 3 131 15 -14 9 -387 10 -474 1z
m115 -121 c0 -5 -4 -10 -10 -10 -5 0 -10 5 -10 10 0 6 5 10 10 10 6 0 10 -4
10 -10z"/>
<path d="M8580 5030 c0 -3 10 -11 21 -19 18 -11 23 -11 30 1 7 10 9 10 9 0 0
-10 5 -10 20 -2 16 8 20 8 20 -4 0 -15 47 -8 125 19 38 14 32 14 -92 12 -73
-1 -133 -4 -133 -7z"/>
<path d="M8104 4903 c2 -16 5 -31 5 -35 1 -5 13 -8 27 -8 14 0 23 4 19 10 -3
6 -14 10 -24 10 -14 0 -17 6 -13 25 2 15 0 25 -7 25 -7 0 -10 -11 -7 -27z"/>
<path d="M8237 4875 c-3 -7 0 -12 8 -11 22 3 27 13 11 19 -8 3 -17 0 -19 -8z"/>
<path d="M8544 4829 c0 -10 4 -19 8 -19 4 0 8 6 8 14 0 8 -4 17 -8 20 -4 2 -8
-4 -8 -15z"/>
<path d="M8590 4795 c7 -8 19 -15 27 -15 13 0 13 3 3 15 -7 8 -19 15 -27 15
-13 0 -13 -3 -3 -15z"/>
<path d="M8643 4758 c1 -16 5 -28 9 -28 10 0 9 9 -2 35 -8 17 -8 16 -7 -7z"/>
<path d="M8472 4695 c-11 -13 -10 -15 6 -15 10 0 19 7 19 15 0 19 -8 19 -25 0z"/>
<path d="M6019 6035 c-31 -17 -54 -65 -45 -98 3 -13 18 -36 32 -50 36 -36 100
-38 137 -3 89 83 -15 210 -124 151z"/>
<path d="M5490 3555 c0 -8 -15 -21 -32 -29 l-33 -14 33 -1 c27 -1 32 -5 32
-26 0 -18 -5 -25 -20 -25 -11 0 -20 -4 -20 -10 0 -5 -7 -10 -15 -10 -13 0 -11
-5 5 -22 18 -19 22 -21 30 -8 6 8 8 20 6 26 -3 7 10 8 38 4 41 -6 42 -6 39 19
-10 65 -13 71 -37 71 -19 0 -23 4 -19 20 3 11 3 20 -1 20 -3 0 -6 -7 -6 -15z"/>
<path d="M5415 3460 c3 -5 8 -10 11 -10 2 0 4 5 4 10 0 6 -5 10 -11 10 -5 0
-7 -4 -4 -10z"/>
<path d="M5399 3383 c-1 -18 -3 -22 -6 -10 -4 14 -8 15 -18 7 -9 -8 -20 -8
-32 -2 -10 5 -24 7 -30 5 -15 -6 -17 -32 -3 -34 6 -1 15 -3 20 -4 6 -1 13 -3
18 -4 4 -1 1 -5 -7 -10 -11 -7 -9 -10 8 -16 11 -3 21 -13 21 -21 0 -8 13 -22
30 -33 16 -10 28 -20 26 -22 -2 -2 2 -10 10 -17 12 -11 14 -9 14 8 0 11 4 20
9 20 5 0 12 11 15 25 4 16 11 22 21 19 8 -4 15 -1 15 4 0 6 -9 14 -21 17 -20
7 -20 7 -2 22 10 8 12 12 6 8 -9 -4 -13 2 -13 19 0 14 -4 26 -10 26 -5 0 -10
-9 -10 -19 0 -10 -6 -21 -14 -24 -15 -6 -26 12 -26 44 0 30 -20 22 -21 -8z
m-11 -46 c3 -13 -1 -15 -14 -10 -13 5 -14 8 -5 11 11 4 11 6 0 14 -11 8 -11 9
1 5 8 -2 16 -11 18 -20z"/>
<path d="M5512 3351 c-10 -28 -7 -41 9 -41 3 0 9 9 12 20 3 11 0 20 -5 20 -6
0 -5 6 2 15 7 9 8 15 2 15 -5 0 -15 -13 -20 -29z"/>
<path d="M5212 3351 c4 -13 18 -16 19 -4 0 4 -5 9 -11 12 -7 2 -11 -2 -8 -8z"/>
<path d="M5175 3320 c3 -5 8 -10 11 -10 2 0 4 5 4 10 0 6 -5 10 -11 10 -5 0
-7 -4 -4 -10z"/>
<path d="M5230 3295 c0 -8 4 -15 9 -15 5 0 14 7 21 15 10 13 9 15 -9 15 -12 0
-21 -6 -21 -15z"/>
<path d="M5540 3280 c0 -5 5 -10 10 -10 6 0 10 5 10 10 0 6 -4 10 -10 10 -5 0
-10 -4 -10 -10z"/>
<path d="M5216 3253 c-6 -14 -5 -15 5 -6 7 7 10 15 7 18 -3 3 -9 -2 -12 -12z"/>
<path d="M5580 3259 c-18 -8 -21 -12 -11 -18 18 -12 51 -2 51 15 0 16 -6 16
-40 3z"/>
<path d="M5186 3231 c-5 -7 -19 -11 -32 -8 -16 3 -24 0 -24 -9 0 -16 37 -18
59 -5 7 5 11 15 9 22 -4 11 -6 11 -12 0z"/>
<path d="M5250 3223 c-8 -3 -19 -12 -23 -19 -4 -8 -14 -14 -21 -14 -8 0 -19
-7 -26 -15 -10 -12 -9 -16 5 -21 11 -5 21 -1 27 9 5 10 14 17 21 17 7 0 20 12
30 25 18 25 15 28 -13 18z"/>
<path d="M5112 3106 c2 -36 6 -46 20 -46 11 0 15 5 12 15 -4 9 0 15 7 15 10 1
9 5 -3 14 -18 14 -25 32 -9 21 5 -3 12 -1 16 5 3 5 2 10 -4 10 -5 0 -16 3 -25
6 -13 5 -15 -2 -14 -40z"/>
<path d="M5190 3131 c0 -5 5 -13 11 -16 7 -5 5 -13 -6 -25 -15 -16 -14 -18 3
-22 10 -3 27 1 37 8 10 8 14 14 8 14 -7 0 -13 10 -15 22 -3 22 -38 40 -38 19z"/>
<path d="M5402 490 c0 -14 2 -19 5 -12 2 6 2 18 0 25 -3 6 -5 1 -5 -13z"/>
</g>
</svg>
